<svg id="Livello_5_copia_2" data-name="Livello 5 copia 2" xmlns="http://www.w3.org/2000/svg" viewBox="0 0 712.97 159"><defs><style>.cls-1{fill:#088898;}</style></defs><title>logo design</title><path class="cls-1" d="M286.75,282.84a21.84,21.84,0,0,1,10.43,2.43L300.8,277c-4.87-2.92-9.32-3.55-14.19-3.55-15,0-20.93,8-20.93,25.17s5.91,25.17,20.93,25.17c4.87,0,9.32-.62,14.19-3.55L297.18,312a21.85,21.85,0,0,1-10.43,2.43c-8.76,0-10.36-5.91-10.36-15.78S278,282.84,286.75,282.84Z" transform="translate(-56 -219)"/><path class="cls-1" d="M315,311.07V273l-11,1.18v36.16c0,4.73.63,9.63,1.95,12.63h9.53C314.64,320,315,314.83,315,311.07Z" transform="translate(-56 -219)"/><path class="cls-1" d="M331,286.25l-11,1.18v22.95c0,4.73.64,9.63,2,12.63h9.53c-0.83-3-.49-8.17-0.49-11.93V286.25Z" transform="translate(-56 -219)"/><path class="cls-1" d="M325.51,271.78c-3.75,0-6,1.53-6,5.15s2.23,5.15,6,5.15,6-1.46,6-5.15S329.26,271.78,325.51,271.78Z" transform="translate(-56 -219)"/><path class="cls-1" d="M355.92,285.41c-5.56,0-8.76,2.09-10.78,5.49a38,38,0,0,0-1.77-5.42l-8.14,1.95c0.9,4.17.77,8.62,0.77,12.86V323h11V298c1-2.85,3.18-4.31,6.8-4.31,4,0,5.2,2.78,5.2,9V323h10V301.34C369,293.83,367.88,285.41,355.92,285.41Z" transform="translate(-56 -219)"/><path class="cls-1" d="M379.15,282.07c3.75,0,6-1.46,6-5.15s-2.23-5.15-6-5.15-6,1.53-6,5.15S375.39,282.07,379.15,282.07Z" transform="translate(-56 -219)"/><path class="cls-1" d="M374,287.43v22.95c0,4.73.28,9.63,1.6,12.63h9.53c-0.83-3-1.12-8.17-1.12-11.93V286.25Z" transform="translate(-56 -219)"/><path class="cls-1" d="M416.62,321.29l-3.27-7.44a16.76,16.76,0,0,1-7.51,1.67c-6.12,0-7.16-4-7.16-10.92s1-10.92,7.16-10.92a16.77,16.77,0,0,1,7.51,1.67l3.27-7.44c-3.13-1.88-6.74-2.5-10.78-2.5-12.45,0-17.38,6.12-17.38,19.19s4.94,19.19,17.38,19.19C409.88,323.79,413.49,323.17,416.62,321.29Z" transform="translate(-56 -219)"/><path class="cls-1" d="M441.38,318.3a37.8,37.8,0,0,0,1.74,5.42l7.89-1.95a61.37,61.37,0,0,1-1-12.86v-9c0-8.76-5.81-14.46-15.47-14.46a29.08,29.08,0,0,0-14.79,3.48l3.07,7.44a22.83,22.83,0,0,1,10.16-2.5c4,0,6.68,1.32,7,6.61-17.73,1-22,4.87-22,12,0,6.88,3.62,11.33,12.86,11.33C436.23,323.79,439.36,321.71,441.38,318.3Zm-8-2.36c-4,0-5.26-1.11-5.26-3.82,0-3,2.91-4.52,11.91-5v4A6.56,6.56,0,0,1,433.35,315.94Z" transform="translate(-56 -219)"/><polygon class="cls-1" points="425.08 54.73 415 92 404.57 54.66 393.03 55.93 409.16 104 420.01 104 436 55.93 425.08 54.73"/><path class="cls-1" d="M506.76,285.41c-10,0-16.55,4.52-16.55,19.33,0,14.32,6.4,19.05,17.59,19.05a23.24,23.24,0,0,0,13.7-4l-3.06-7a20.23,20.23,0,0,1-10.78,2.85c-4.24,0-6.33-1.74-7-6.19l21.83-2.29C522.55,289.17,516.64,285.41,506.76,285.41ZM500,303v-1c0-5.77,2.37-8.41,6.62-8.41,3.75,0,5.7,2.09,5.84,7.51Z" transform="translate(-56 -219)"/><path class="cls-1" d="M540,274.56l-11,1.25V286h-5v8h5v12.13c0,7,1.19,14.53,8,18.36l7.13-4.73c-3.41-3.75-4.14-7.86-4.14-13.42V294h6.27l0.9-8H540V274.56Z" transform="translate(-56 -219)"/><path class="cls-1" d="M564.67,285.41c-10,0-16.55,4.52-16.55,19.33,0,14.32,6.4,19.05,17.59,19.05a23.24,23.24,0,0,0,13.7-4l-3.06-7a20.23,20.23,0,0,1-10.78,2.85c-4.24,0-6.33-1.74-7-6.19l21.83-2.29C580.46,289.17,574.55,285.41,564.67,285.41ZM558,303v-1c0-5.77,2.33-8.41,6.57-8.41,3.75,0,5.72,2.09,5.86,7.51Z" transform="translate(-56 -219)"/><path class="cls-1" d="M593.58,291.95a50.19,50.19,0,0,0-2.16-6.47l-8.16,1.95c0.9,4.17.74,8.62,0.74,12.86V323h11V301.41c2-3.89,4.49-5.41,9.5-5.41h1l-1.32-10.58C598.52,286,595.46,288.54,593.58,291.95Z" transform="translate(-56 -219)"/><path class="cls-1" d="M619,286.25l-11,1.18v22.95c0,4.73.68,9.63,2,12.63h9.53c-0.83-3-.53-8.17-0.53-11.93V286.25Z" transform="translate(-56 -219)"/><path class="cls-1" d="M613.55,271.78c-3.75,0-6,1.53-6,5.15s2.22,5.15,6,5.15,6-1.46,6-5.15S617.3,271.78,613.55,271.78Z" transform="translate(-56 -219)"/><path class="cls-1" d="M643.95,285.41c-5.56,0-8.75,2.09-10.77,5.49a38,38,0,0,0-1.77-5.42l-8.15,1.95c0.9,4.17.75,8.62,0.75,12.86V323h11V298c1-2.85,3.18-4.31,6.8-4.31,4,0,5.2,2.78,5.2,9V323h10V301.34C657,293.83,655.91,285.41,643.95,285.41Z" transform="translate(-56 -219)"/><path class="cls-1" d="M692,299.88c0-8.76-5.61-14.46-15.28-14.46a28.72,28.72,0,0,0-14.7,3.48l3.12,7.44a22.93,22.93,0,0,1,10.18-2.5c4,0,6.69,1.32,7,6.61-17.73,1-22,4.87-22,12,0,6.88,3.62,11.33,12.87,11.33,5.49,0,8.62-2.09,10.64-5.49a37.8,37.8,0,0,0,1.74,5.42l7.7-1.95a61.6,61.6,0,0,1-1.2-12.86v-9Zm-10,11.19c-1,3-3,4.87-6.45,4.87-4,0-5.36-1.11-5.36-3.82,0-3,3.81-4.52,11.81-5v4Z" transform="translate(-56 -219)"/><path class="cls-1" d="M706.82,291.95a50.19,50.19,0,0,0-2.16-6.47l-7.78,1.95A61.46,61.46,0,0,1,698,300.29V323h10V301.41c2-3.89,4.73-5.41,9.73-5.41h1l-1.32-10.58C711.75,286,708.69,288.54,706.82,291.95Z" transform="translate(-56 -219)"/><path class="cls-1" d="M726.79,271.78c-3.75,0-6,1.53-6,5.15s2.22,5.15,6,5.15,6-1.46,6-5.15S730.54,271.78,726.79,271.78Z" transform="translate(-56 -219)"/><path class="cls-1" d="M732,286.25l-10,1.18v22.95c0,4.73-.08,9.63,1.24,12.63h9.53c-0.83-3-.77-8.17-0.77-11.93V286.25Z" transform="translate(-56 -219)"/><path class="cls-1" d="M768,308.92v-9c0-8.76-5.84-14.46-15.51-14.46-5.49,0-10.43,1-14.81,3.48l3.06,7.44a22.8,22.8,0,0,1,10.15-2.5c4,0,6.67,1.32,7,6.61-17.73,1-22,4.87-22,12,0,6.88,3.62,11.33,12.86,11.33,5.49,0,8.62-2.09,10.64-5.49a37.8,37.8,0,0,0,1.74,5.42l7.93-1.95A61.41,61.41,0,0,1,768,308.92Zm-10,2.16c-2,3-3.21,4.87-6.69,4.87-4,0-5.25-1.11-5.25-3.82,0-3,2.93-4.52,11.93-5v4Z" transform="translate(-56 -219)"/><polygon class="cls-1" points="218.03 137.91 211.42 116.59 208.57 117.04 216.6 141 219.32 141 227.28 117.08 224.57 116.54 218.03 137.91"/><path class="cls-1" d="M292,335.9L284,360h2.89l1.74-5h9.46l1.84,5.63,2.92-.47-8.1-24.46ZM289.36,352l4-13,4,13h-8Z" transform="translate(-56 -219)"/><polygon class="cls-1" points="254 117 252 117 252 141 266 141 266 139 254 139 254 117"/><path class="cls-1" d="M345.95,335.45a39.37,39.37,0,0,0-7.95.83V360h7.83c7,0,10.22-3,10.22-12.07C356,337.64,351.75,335.45,345.95,335.45ZM345.83,358H340V338.37a38.32,38.32,0,0,1,5.75-.49c4.38,0,7.41,1.85,7.41,10.27C353.16,355.94,351,358,345.83,358Z" transform="translate(-56 -219)"/><polygon class="cls-1" points="305.64 127 307.59 127 310.86 115.9 307.97 115.96 305.64 127"/><polygon class="cls-1" points="317 141 331 141 331 139 320 139 320 129 328.9 129 329.15 127 320 127 320 119 331 119 331 117 317 117 317 141"/><polygon class="cls-1" points="341 117 338 117 338 141 353 141 353 139 341 139 341 117"/><path class="cls-1" d="M422.59,346.54c-3-.9-5.49-1.63-5.49-4.49,0-3.17,2.26-4.17,5.18-4.17a12.59,12.59,0,0,1,5.91,1.36l0.9-2.37a15.7,15.7,0,0,0-7-1.43c-4.24,0-7.65,2-7.65,6.68,0,4.52,3.76,5.91,7.2,6.92,3.13,0.94,6.19,1.46,6.19,4.49,0,3.51-2.37,4.66-5.42,4.66a14.92,14.92,0,0,1-7.65-2.09l-1,2.33a16.44,16.44,0,0,0,8.69,2.19c4.83,0,8.07-2.23,8.07-7.06S426.14,347.62,422.59,346.54Z" transform="translate(-56 -219)"/><path class="cls-1" d="M442.93,335.9l-8,24.1h2.89l1.74-5H449l1.84,5.63,2.92-.47-8.1-24.46ZM440.25,352l4-13,4,13h-8Z" transform="translate(-56 -219)"/><polygon class="cls-1" points="210 33.76 215.8 44 217 44 217 32 216 32 216 41.63 210.26 31.59 209 31.88 209 44 210 44 210 33.76"/><path class="cls-1" d="M285.5,263.07c3.25,0,4.5-2,4.5-6.29V251h-1v5.77c0,3.46-1,5.08-3.48,5.08s-3.52-1.62-3.52-5.08V251h-1v5.77C281,261.07,282.22,263.07,285.5,263.07Z" transform="translate(-56 -219)"/><path class="cls-1" d="M307.78,256.77c0-4.29-1.39-6.29-4.92-6.29s-4.92,2-4.92,6.29,1.39,6.29,4.92,6.29S307.78,261.07,307.78,256.77Zm-4.92,5.08c-3,0-3.56-1.91-3.56-5.08s0.52-5.07,3.56-5.07,3.56,1.91,3.56,5.07S305.9,261.85,302.86,261.85Z" transform="translate(-56 -219)"/><polygon class="cls-1" points="263.52 44 267.5 31.92 266.14 31.59 262.87 42.23 259.57 31.56 258.15 31.91 262.16 44 263.52 44"/><path class="cls-1" d="M330.87,260h4.73l0.92,2.94,1.46-.17-4-12.17-1.36.23-4,12.17H330Zm2.36-7.52,2,6.52h-4Z" transform="translate(-56 -219)"/><path class="cls-1" d="M214,322.3h0.65L214,322v0.28Z" transform="translate(-56 -219)"/><path class="cls-1" d="M205.58,263H172V228c0-5.36-5.87-9-11.23-9H109.94c-5.36,0-10.94,3.68-10.94,9v35H65.13c-5.36,0-9.13,4.49-9.13,9.84v50.83C56,329,59.78,336,65.13,336H99v32.48c0,5.36,5.59,9.52,10.94,9.52h16.33a52,52,0,0,1-.49-12.22,0.69,0.69,0,0,0-1.27-.4c-2.87,3.9-3.91,9.56-3.91,9.56s-6.28-10.55-6.58-19.43a20.57,20.57,0,0,1,3.38-12.13,0.66,0.66,0,0,0-.88-0.94,13.89,13.89,0,0,0-5.56,5.88c-3.47-8.44,0-18.79,1.43-22.41a0.73,0.73,0,0,0-.95-0.94,7.67,7.67,0,0,0-3.54,2.83c-1.38-7.2,7.2-18.83,10.87-22.51s4.13-4.75,3.22-5.51-4.59,1.68-9.19,3.83a20.52,20.52,0,0,1-13,2c-3.6-.61-5.51-3.79-8.44-6.2S88,296,88.39,294.74c0.83-2.45,4.48-2.93,11.71-8.61s10.16-10.34,11.54-14.3,2.7-7,4.65-8.1l6.55-3.78c-2.07-6.72-1.55-21-1.55-21a70,70,0,0,0,10,10.68,28,28,0,0,1,7.92,11.89c1.72-1.89,1.55-5.51,1.55-5.51s10.34,0,17.74,6.89c18.43,17.4,28.59,49.27,28.59,49.27,5.56,0.93,23.31,8.36,26.91,9.89V272.84C214,267.49,210.94,263,205.58,263Z" transform="translate(-56 -219)"/><path class="cls-1" d="M178.49,327c-3.47-9.8-7-20.43-17.18-25.13,0,0-6.45-9.2-8.59-11.75s-4.14-2.35-3.73,1.73,1.65,10.82,1.65,10.82-9.18-.1-13.46,4.49-6.63,9.39-10.71,13.27-4.9,5.51-1.73,10.51,4.29,6.23,6.53,7,7.35,0.31,9.7.71,5.92,1.43,5.41,3.78-5.31,11.23-4.59,20.11,4.39,12.55,4.39,12.55-1-5.45,1.53-7.69A17.58,17.58,0,0,0,153.93,378h54.71s5.36,0.35,5.36-7V344s-6.46-4.77-18.3-5.18S182,336.78,178.49,327Z" transform="translate(-56 -219)"/></svg>